<svg width="681" height="88" viewBox="0 0 681 88" fill="none" xmlns="http://www.w3.org/2000/svg">
<path d="M99.8496 69.71V15.79H120.63C126.45 15.79 130.95 16.97 134.15 19.32C137.35 21.67 138.95 25.2 138.95 29.91C138.95 32.82 138.16 35.26 136.57 37.25C134.99 39.23 132.76 40.7 129.91 41.65C138.79 43.19 143.23 47.78 143.23 55.45C143.23 59.89 141.61 63.38 138.35 65.92C135.1 68.46 130.41 69.73 124.28 69.73H99.8596L99.8496 69.71ZM108.1 38.55H119.12C126.63 38.55 130.38 35.99 130.38 30.86C130.38 28.06 129.47 26.04 127.65 24.79C125.83 23.55 123.12 22.93 119.52 22.93H108.1V38.55ZM108.1 62.58H123.17C130.68 62.58 134.43 59.88 134.43 54.49C134.43 48.73 130.23 45.85 121.82 45.85H108.1V62.58Z" fill="black"/>
<path d="M157.26 69.7201V15.8H180.65C183.34 15.8 185.85 16.12 188.18 16.75C190.51 17.39 192.65 18.35 194.6 19.65C196.56 20.95 198.1 22.74 199.24 25.04C200.38 27.34 200.94 30.02 200.94 33.09C200.94 37.85 199.3 41.7701 196.02 44.8601C192.74 47.9501 188.72 49.6301 183.97 49.9001C184.45 50.43 185.49 51.55 187.1 53.27C188.71 54.99 189.94 56.2601 190.79 57.0801C191.63 57.9001 192.76 58.89 194.16 60.05C195.56 61.21 196.9 62.04 198.17 62.55C199.44 63.05 200.71 63.3 201.98 63.3C204.31 63.3 206.47 62.8 208.48 61.7901L209.35 68.45C206.6 69.82 203.72 70.5101 200.71 70.5101C197.96 70.5101 195.16 69.63 192.3 67.85C189.45 66.08 187.05 64.12 185.12 61.98C183.19 59.84 181.1 57.51 178.85 55C176.6 52.4901 174.87 50.7901 173.66 49.89H165.49V69.71H157.24L157.26 69.7201ZM181.53 23.01H165.51V43.31H181.53C184.65 43.31 187.22 42.4001 189.26 40.5801C191.29 38.7601 192.31 36.31 192.31 33.25C192.31 29.92 191.31 27.38 189.3 25.64C187.29 23.9 184.7 23.0201 181.53 23.0201" fill="black"/>
<path d="M261.22 69.71H219.43V15.79H261.22V23.09H227.28V38.23H255.43V45.53H227.28V62.42H261.22V69.71Z" fill="black"/>
<path d="M268.75 69.71L291.11 15.79H300.63L322.04 69.71H313.72L308.96 57.82H282.08L277.16 69.71H268.75ZM295.87 24.04L284.21 51.56H306.81L295.87 24.04Z" fill="black"/>
<path d="M368.9 24.04H350.5V69.71H342.26V24.04H322.91V15.79H368.9V24.04Z" fill="black"/>
<path d="M422.189 69.71V46.16H388.799V69.71H380.559V15.79H388.799V38.95H422.189V15.79H430.429V69.71H422.189Z" fill="black"/>
<path d="M490.14 69.71H448.35V15.79H490.14V23.09H456.2V38.23H484.35V45.53H456.2V62.42H490.14V69.71Z" fill="black"/>
<path d="M566.419 69.71H524.629V15.79H566.419V23.09H532.489V38.23H560.629V45.53H532.489V62.42H566.419V69.71Z" fill="black"/>
<path d="M600.519 47.2701L589.659 44.4901C581.519 42.4301 577.449 37.8601 577.449 30.7701C577.449 26.2801 579.259 22.5401 582.879 19.5501C586.499 16.5701 591.769 15.0701 598.699 15.0701C602.239 15.0701 605.729 15.4801 609.169 16.3001C612.609 17.1201 615.409 18.1401 617.579 19.3601L615.119 27.1301C613.159 25.9101 610.609 24.8701 607.469 24.0001C604.329 23.1301 601.299 22.6901 598.389 22.6901C594.269 22.6901 591.159 23.3901 589.069 24.7901C586.979 26.1901 585.939 27.9801 585.939 30.1401C585.939 33.4201 588.369 35.6601 593.239 36.8801L603.949 39.7301C608.869 41.1101 612.529 42.9001 614.929 45.1201C617.329 47.3401 618.539 50.3001 618.539 54.0001C618.539 58.9701 616.539 62.9601 612.549 65.9701C608.559 68.9801 603.359 70.4901 596.969 70.4901C593.429 70.4901 589.939 70.0001 586.499 69.0201C583.059 68.0401 580.339 66.9701 578.329 65.8101L580.309 57.9601C585.489 61.2401 591.089 62.8801 597.119 62.8801C601.029 62.8801 604.149 62.1301 606.479 60.6201C608.809 59.1101 609.969 57.1201 609.969 54.6301C609.969 52.7801 609.189 51.2901 607.629 50.1501C606.069 49.0101 603.699 48.0501 600.529 47.2501" fill="black"/>
<path d="M655.709 39.5H680.769V63.37C678.179 65.38 674.739 67.07 670.459 68.44C666.179 69.81 662.029 70.5 658.009 70.5C649.759 70.5 642.919 68 637.469 63.01C632.019 58.01 629.299 51.29 629.299 42.83C629.299 34.37 632.019 27.55 637.469 22.53C642.909 17.51 649.759 15 658.009 15C666.259 15 672.789 17.49 678.699 22.45L674.739 28.79C670.089 24.72 664.589 22.68 658.249 22.68C652.379 22.68 647.519 24.48 643.659 28.07C639.799 31.67 637.869 36.58 637.869 42.82C637.869 49.06 639.809 53.82 643.699 57.41C647.589 61.01 652.539 62.8 658.569 62.8C663.909 62.8 668.559 61.53 672.529 58.99V46.7H655.719V39.48L655.709 39.5Z" fill="black"/>
<mask id="mask0_3756_21880" style="mask-type:luminance" maskUnits="userSpaceOnUse" x="0" y="0" width="85" height="88">
<path d="M52.27 40.52L71.26 52.98L45.28 78.96H13.83L52.27 40.52ZM8.11 11.55L45.36 35.98L8.11 73.23V11.55ZM4.05 0H0V87.06H48.63L84.02 51.67L17.61 8.1H46.18L59.71 21.63L54.13 27.21L61.05 31.75L71.17 21.63L49.54 0H4.06H4.05Z" fill="white"/>
</mask>
<g mask="url(#mask0_3756_21880)">
<path d="M65.6669 -34.7227L-35.9678 19.022L18.3706 121.779L120.005 68.0347L65.6669 -34.7227Z" fill="url(#paint0_linear_3756_21880)"/>
</g>
<defs>
<linearGradient id="paint0_linear_3756_21880" x1="66.7499" y1="93.7494" x2="18.8291" y2="3.12802" gradientUnits="userSpaceOnUse">
<stop stop-color="#00AEEF"/>
<stop offset="1" stop-color="#39B54A"/>
</linearGradient>
</defs>
</svg>
